# xmcd CD database file
#
# Track frame offsets:
#	150
#	14502
#	57995
#	71254
#	84358
#	97921
#	110479
#	124375
#	138639
#	151792
#	177280
#	178651
#	191277
#	205426
#	245234
#	257778
#
# Disc length: 3705 seconds
#
# Revision: 0
# Processed by: cddbd v1.5.2PL0 Copyright (c) Steve Scherf et al.
# Submitted via: CDex 1.79
#
DISCID=e10e7710
DTITLE=Dizzy Gillespie - Ultimate collection
DYEAR=2015
DGENRE=Jazz
TTITLE0=Be bop
TTITLE1=Sweet Georgia Brown
TTITLE2=A night in Tunisia
TTITLE3=Ko ko
TTITLE4=Salt peanuts
TTITLE5=The good bait
TTITLE6=Groovin' high
TTITLE7=Billie's bounce
TTITLE8=Confirmation
TTITLE9=Afro-cuban drum suite I
TTITLE10=Afro-cuban drum suite II
TTITLE11=Dizzy atmosphere
TTITLE12=Hot house
TTITLE13=Round about midnight
TTITLE14=All the things you are
TTITLE15=Slam slam blues
EXTD=YEAR: 2015
EXTT0=
EXTT1=
EXTT2=
EXTT3=
EXTT4=
EXTT5=
EXTT6=
EXTT7=
EXTT8=
EXTT9=
EXTT10=
EXTT11=
EXTT12=
EXTT13=
EXTT14=
EXTT15=
PLAYORDER=
